<svg xmlns="http://www.w3.org/2000/svg" width="179" height="21" viewBox="0 0 179 21">
    <g fill="#F5C417" fill-rule="evenodd">
        <path fill-rule="nonzero" d="M34.682 19.499l1.56-10.36L40.3 19.5h1.873l4.273-10.36 1.56 10.36h4.683L49.616 1.5h-4.658l-3.602 9.596L37.731 1.5h-4.658L30 19.5h4.682zM64.72 20c1.457 0 2.801-.243 4.034-.728 1.232-.485 2.293-1.158 3.181-2.017.888-.86 1.58-1.866 2.077-3.02.496-1.153.744-2.398.744-3.735 0-1.337-.248-2.582-.744-3.736-.496-1.153-1.189-2.16-2.077-3.019-.888-.86-1.949-1.532-3.181-2.017C67.52 1.243 66.177 1 64.72 1c-1.472 0-2.82.243-4.045.728s-2.277 1.158-3.158 2.017c-.88.86-1.568 1.866-2.064 3.02-.497 1.153-.745 2.398-.745 3.735 0 1.337.248 2.582.745 3.736.496 1.153 1.184 2.16 2.064 3.019.88.86 1.933 1.532 3.158 2.017 1.224.485 2.573.728 4.045.728zm0-4.535c-.688 0-1.34-.124-1.957-.37-.616-.247-1.156-.593-1.62-1.038-.464-.446-.832-.971-1.105-1.576-.272-.605-.408-1.265-.408-1.981 0-.716.136-1.376.408-1.981.273-.605.64-1.13 1.105-1.576.464-.445 1.004-.791 1.62-1.038.617-.246 1.269-.37 1.957-.37.688 0 1.34.124 1.957.37.616.247 1.16.593 1.633 1.038.472.446.844.971 1.116 1.576.272.605.408 1.265.408 1.981 0 .716-.136 1.376-.408 1.981-.272.605-.644 1.13-1.116 1.576-.473.445-1.017.791-1.633 1.038-.616.246-1.269.37-1.957.37zm21.491 4.034L93.846 1.5h-5.114L84.34 12.457l-4.37-10.956h-5.114l7.61 17.998h3.746zm14.097 0V1.5h-4.706V19.5h4.706zm13.952 0v-3.963h-5.594v-3.103h5.282V8.471h-5.282V5.464h5.594V1.5h-10.3V19.5h10.3zm8.79.501c1.104 0 2.093-.147 2.965-.442.872-.294 1.609-.708 2.209-1.24.6-.534 1.056-1.174 1.368-1.922.313-.748.469-1.584.469-2.507 0-1.368-.356-2.478-1.069-3.33-.712-.85-1.836-1.53-3.373-2.04-.384-.127-.772-.247-1.164-.358-.393-.112-.745-.243-1.057-.394-.312-.151-.564-.33-.756-.537-.192-.207-.288-.47-.288-.788 0-.461.192-.835.576-1.122.384-.286.88-.43 1.488-.43.48 0 .977.1 1.49.3.511.198 1.023.504 1.536.918l1.872-3.652c-.896-.477-1.832-.84-2.809-1.086-.976-.247-1.912-.37-2.809-.37-.96 0-1.828.143-2.605.43-.776.286-1.432.688-1.969 1.205-.536.517-.952 1.138-1.248 1.862-.296.724-.444 1.531-.444 2.423 0 .89.14 1.627.42 2.208.28.58.648 1.062 1.104 1.444.457.382.977.688 1.561.919.584.23 1.18.441 1.789.632.512.175.948.334 1.308.478.36.143.652.298.877.465.224.167.384.35.48.549.096.199.144.434.144.704 0 .446-.188.843-.564 1.194-.377.35-.949.525-1.717.525-.672 0-1.353-.151-2.04-.454-.69-.302-1.385-.764-2.09-1.384l-2.016 3.771C118.64 19.324 120.76 20 123.05 20zm16.81-.501V5.464h3.865V1.5h-12.437v3.963h3.865v14.035h4.706zm8.261 0l1.08-3.127h6.723l1.08 3.127h5.019L155.132 1.5h-5.138l-6.89 17.998h5.017zm6.555-6.684h-4.226l2.113-5.99 2.113 5.99zm13.976 6.684v-6.922l4.49 6.922H179l-5.69-7.376c1.296-.302 2.277-.88 2.94-1.73.665-.852.997-1.962.997-3.33 0-.764-.124-1.48-.372-2.148-.248-.669-.616-1.258-1.104-1.767-.488-.509-1.109-.91-1.861-1.205-.752-.295-1.633-.442-2.641-.442h-7.323V19.5h4.706zm.888-9.954h-.888v-4.44h.888c.929 0 1.641.191 2.137.573.496.382.744.931.744 1.647s-.248 1.265-.744 1.647c-.496.382-1.208.573-2.137.573z"/>
        <path d="M10.5 15.75L4.328 18.995 5.507 12.122 0.514 7.255 7.414 6.253 10.5 0 13.586 6.253 20.486 7.255 15.493 12.122 16.672 18.995z"/>
    </g>
</svg>
