<svg xmlns="http://www.w3.org/2000/svg" width="22" height="21" viewBox="0 0 22 21">
    <path stroke="#000" stroke-width="2" d="M19.92 18.18l-6.297-5.982c1.075-1.19 1.701-2.721 1.701-4.394C15.324 4.062 12.101 1 8.162 1 4.222 1 1 4.062 1 7.804c0 3.742 3.223 6.804 7.162 6.804 1.76 0 3.372-.595 4.626-1.616l6.296 5.982c.12.113.269.17.418.17.15 0 .299-.057.418-.17.239-.227.239-.567 0-.794zM2.194 7.804c0-3.119 2.685-5.67 5.968-5.67s5.969 2.552 5.969 5.67-2.686 5.67-5.969 5.67c-3.283 0-5.968-2.552-5.968-5.67z"/>
</svg>
