<?xml version="1.0" encoding="UTF-8"?>
<svg width="40px" height="52px" viewBox="0 0 40 52" version="1.1" xmlns="http://www.w3.org/2000/svg" xmlns:xlink="http://www.w3.org/1999/xlink">
    <title>27500D06-0954-4BA9-85A2-A53C3FF17A26</title>
    <g id="Page-1" stroke="none" stroke-width="1" fill="none" fill-rule="evenodd">
        <g id="Movie-page---Desktop" transform="translate(-1231.000000, -641.000000)" stroke="#FFFFFF" stroke-width="3">
            <g id="Group-7" transform="translate(1158.000000, 643.000000)">
                <path d="M77.592,0 L108.408,0 C109.839522,-4.52139658e-15 111,1.16047793 111,2.592 L111,46.7755752 C111,47.5708653 110.35529,48.2155752 109.56,48.2155752 C109.205278,48.2155752 108.863036,48.0846471 108.598887,47.8478913 L94.7300033,35.4172623 C93.7454614,34.5348209 92.2545386,34.5348209 91.2699967,35.4172623 L77.401113,47.8478913 C76.8088891,48.3786994 75.8984919,48.328912 75.3676839,47.7366882 C75.1309281,47.4725391 75,47.1302977 75,46.7755752 L75,2.592 C75,1.16047793 76.1604779,-1.06930129e-15 77.592,0 Z" id="Rectangle-Copy-3"></path>
            </g>
        </g>
    </g>
</svg>